<?xml version="1.0" encoding="UTF-8"?>
<svg width="24px" height="24px" viewBox="0 0 24 24" version="1.1" xmlns="http://www.w3.org/2000/svg" xmlns:xlink="http://www.w3.org/1999/xlink">
    <g stroke="none" stroke-width="1" fill="none" fill-rule="evenodd">
        <rect x="0" y="0" width="24" height="24"/>
        <path d="M4,9 L4,15 L20,15 L20,9 L4,9 Z M4,7 L20,7 C21.1045695,7 22,7.8954305 22,9 L22,15 C22,16.1045695 21.1045695,17 20,17 L4,17 C2.8954305,17 2,16.1045695 2,15 L2,9 C2,7.8954305 2.8954305,7 4,7 Z" fill="#FFD700" fill-rule="nonzero"/>
        <rect fill="#FFD700" opacity="0.3" x="11" y="4" width="2" height="4" rx="1"/>
        <rect fill="#FFD700" opacity="0.3" x="11" y="16" width="2" height="4" rx="1"/>
        <path d="M7,11 L9,11 C9.55228475,11 10,11.4477153 10,12 C10,12.5522847 9.55228475,13 9,13 L7,13 C6.44771525,13 6,12.5522847 6,12 C6,11.4477153 6.44771525,11 7,11 Z M11,11 L13,11 C13.5522847,11 14,11.4477153 14,12 C14,12.5522847 13.5522847,13 13,13 L11,13 C10.4477153,13 10,12.5522847 10,12 C10,11.4477153 10.4477153,11 11,11 Z M15,11 L17,11 C17.5522847,11 18,11.4477153 18,12 C18,12.5522847 17.5522847,13 17,13 L15,13 C14.4477153,13 14,12.5522847 14,12 C14,11.4477153 14.4477153,11 15,11 Z" fill="#FFD700" opacity="0.3"/>
    </g>
</svg>
